<?xml version="1.0" encoding="UTF-8"?>
<svg width="355px" height="110px" viewBox="0 0 355 110" version="1.1" xmlns="http://www.w3.org/2000/svg" xmlns:xlink="http://www.w3.org/1999/xlink">
    <!-- Generator: Sketch 41.2 (35397) - http://www.bohemiancoding.com/sketch -->
    <title>Group 2</title>
    <desc>Created with Sketch.</desc>
    <defs></defs>
    <g id="Symbols" stroke="none" stroke-width="1" fill="none" fill-rule="evenodd">
        <g id="logo">
            <g id="Group-2">
                <g id="4clogo">
                    <path d="M5.96490793,44.9626835 L0,44.9626835 C0.0371271157,44.6113659 0.0682483744,41.8600113 0.121209113,36.7042758 C0.168709982,31.5485403 0.184543605,26.2717169 0.184543605,20.8748917 C0.184543605,18.5383851 0.179083735,15.6192451 0.168709982,12.1017249 C0.152876359,8.58909158 0.0895418673,4.55138233 0,0 L5.96490793,0 C5.87536606,3.62774819 5.81749144,7.83867278 5.80165782,12.6164839 C5.79128406,17.3888651 5.78036432,20.2238409 5.78036432,21.1371582 C5.78036432,23.2271451 5.8065717,27.6476657 5.87536606,34.3786291 C5.93924654,41.1144795 5.96490793,44.6374297 5.96490793,44.9626835 L5.96490793,44.9626835 Z M33,44.3436695 L29.3943019,47 C23.8350623,42.4008341 18.8676726,38.3951616 14.5019606,34.9770094 C10.1302427,31.5697171 7.72353204,29.6795522 7.26927086,29.3276916 L7.26927086,29.2961979 C7.8764084,28.8444262 10.5211694,26.676248 15.2199335,22.7650566 C19.9077778,18.863639 23.7089393,15.6664857 26.6015784,13.1676236 L30.2018166,16.2388022 C27.2032561,18.5910556 24.0621929,21.0741708 20.7786271,23.6892337 C17.4896014,26.2983236 15.4306845,27.931109 14.6018762,28.5821597 L14.6018762,28.6136534 C21.998362,34.9243389 28.1325259,40.1642386 33,44.3436695 L33,44.3436695 Z" id="Fill-1" fill="#0060A0"></path>
                    <path d="M44,8.24318839 L51,8.24318839 L51,3 L44,3 L44,8.24318839 Z M50.6038702,45 L44.3853159,45 C44.4234491,44.6768193 44.4564599,42.6681354 44.5116676,38.9906738 C44.5554923,35.3126726 44.5776892,32.2815724 44.5776892,29.8871218 C44.5776892,27.7953497 44.5719977,25.5001734 44.5554923,22.9854069 C44.5389869,20.4760357 44.4837792,17.5285632 44.3853159,14.1429893 L50.6038702,14.1429893 C50.5537849,17.0850665 50.5099602,19.8188837 50.4661355,22.369799 C50.4274331,24.9207142 50.4166192,27.1851371 50.4166192,29.177635 C50.4166192,33.9303873 50.438247,37.7384161 50.5099602,40.5920098 C50.5708594,43.4612499 50.6038702,44.9217676 50.6038702,45 L50.6038702,45 Z" id="Fill-2" fill="#0060A0"></path>
                    <path d="M88.1949628,36.6004232 C88.1644381,39.4347088 88.1483725,40.9430286 88.1483725,41.1409821 L87.6722952,41.1409821 L87.1908627,41.1409821 C84.8554598,41.1409821 82.6239478,40.9586282 80.4957911,40.5740174 C78.3729897,40.1942479 76.4622542,39.6272832 74.7635846,38.8887229 C72.8169693,38.0517237 71.2007698,36.8860572 69.9015982,35.3987162 C68.5911807,33.905996 67.9496276,32.1217247 67.9496276,30.0206202 C67.9496276,27.7113417 68.6222408,25.6936143 69.9738934,23.9824998 C71.325546,22.2708473 73.2309263,20.9502606 75.6905698,20.0137468 C77.2441135,19.4263412 79.1077232,18.9529741 81.2824701,18.609245 C83.4625722,18.2660538 85.782445,18.0944583 88.2420885,18.0944583 L88.2420885,21.0438582 L88.2420885,23.7065482 C88.2420885,29.4746342 88.2260229,33.7655996 88.1949628,36.6004232 L88.1949628,36.6004232 Z M93.8859342,36.0694989 C93.8446992,32.6214497 93.8184587,28.7618939 93.8184587,24.5026657 C93.8184587,19.0826121 93.8495189,13.7464737 93.906284,8.48833317 C93.9689398,3.21943435 94,0.395369131 94,0 L88.1483725,0 L88.2420885,14.0536244 C85.6319639,14.0536244 82.9656096,14.2612604 80.2623044,14.66685 C77.5440047,15.0675983 75.147017,15.6813618 73.0445653,16.4925409 C69.4769308,17.8400234 66.7479207,19.681314 64.8478956,22.0578321 C62.9526902,24.4241298 62,27.1497561 62,30.2131945 C62,32.8608229 62.8541545,35.2480994 64.5522885,37.3804031 C66.2563133,39.5234651 68.7518367,41.2345797 72.0243996,42.5137468 C74.5408083,43.5072798 77.1145176,44.1678421 79.7605221,44.5008129 C82.3958162,44.8337836 86.051276,45 90.7065518,45 L92.596402,45 L94,45 C93.9689398,42.4986851 93.9373442,39.5234651 93.8859342,36.0694989 L93.8859342,36.0694989 Z" id="Fill-3" fill="#0060A0"></path>
                    <path d="M179,45 L173.09673,45 C173.122665,44.4453078 173.159405,42.5538895 173.211813,39.3197336 C173.253416,36.0915891 173.27935,34.0936043 173.27935,33.343267 C173.27935,32.2655794 173.274488,30.6698147 173.253416,28.5827513 C173.237747,26.5006063 173.217216,24.9791649 173.190742,24.0222526 C173.117802,21.6499189 172.563999,19.9639826 171.540139,18.928375 C170.526544,17.8982324 168.755455,17.3801554 166.247943,17.3801554 C164.727552,17.3801554 162.846783,17.739749 160.605637,18.4583895 C158.369893,19.1715652 156.107676,20.0907694 153.814661,21.2061651 C153.814661,21.4329605 153.803855,22.6592947 153.767655,24.8889933 C153.741181,27.1137734 153.725512,29.1483733 153.725512,30.9922466 C153.725512,33.396277 153.751447,36.2976176 153.814661,39.6842456 C153.871933,43.0823499 153.908132,44.8469815 153.908132,45 L148,45 C148,44.8786782 148.03674,43.6157288 148.094011,41.2379302 C148.162089,38.8601315 148.188023,35.3090086 148.188023,30.5954914 C148.188023,28.4559645 148.18262,25.9355307 148.167492,23.0238067 C148.14642,20.1120827 148.094011,17.0211084 148,13.7448723 L153.814661,13.7448723 L153.814661,17.2959952 L153.856264,17.3593886 C157.324962,15.7209974 160.219325,14.5848348 162.544217,13.9509009 C164.863706,13.316967 166.786078,13 168.332404,13 C171.519067,13 174.078988,13.8186491 176.006762,15.4674238 C177.944803,17.1161984 178.900586,19.3885236 178.900586,22.2783878 C178.900586,24.8731449 178.89032,27.1083084 178.864386,29.0002732 C178.828186,30.8862266 178.811977,32.403296 178.811977,33.5656904 C178.811977,35.4521902 178.843314,37.7982922 178.900586,40.6039962 C178.968663,43.4097003 179,44.8786782 179,45" id="Fill-4" fill="#0060A0"></path>
                    <path d="M123.802836,13 L119.471804,13 L108.333073,32.8251486 L102,43.8883816 L102.601048,44.1604638 L106.884127,46 L108.912869,42.2320402 C108.912869,42.2320402 113.00686,34.8321617 113.322915,34.2614394 L129.377379,34.2614394 C129.682535,34.8484216 133.465921,42.0905791 133.465921,42.0905791 L135.426003,45.9685642 L135.952941,45.7907893 L141,43.7203626 L135.014587,33.1449266 L123.802836,13 L123.802836,13 Z M127.121951,30.2105574 L115.551642,30.2105574 C116.247506,28.9314457 118.354716,25.0848964 118.354716,25.0848964 C118.354716,25.0848964 120.340953,21.4638176 121.268409,19.7868804 C121.969177,21.0182965 124.382087,25.294649 124.382087,25.294649 C124.382087,25.294649 126.416278,28.9525835 127.121951,30.2105574 L127.121951,30.2105574 Z" id="Fill-5" fill="#0060A0"></path>
                    <path d="M220.845144,42.0929204 C220.845144,42.0875609 220.804027,36.9987104 220.804027,36.9987104 L220.85529,33.4228482 L221,29.0076875 L215.243101,29.002328 L215.402763,38.8793609 C215.402763,38.8793609 215.418783,40.7557238 215.433734,41.7767096 C213.311675,41.7456245 211.220588,41.6159244 209.233093,41.3098967 C207.069918,40.9733197 204.988976,40.4030683 203.047938,39.5948549 C200.905054,38.7089286 199.143969,37.4649874 197.796724,35.8898287 C196.485255,34.3505787 195.819375,32.3707773 195.819375,29.9975882 C195.819375,28.1421274 196.459624,26.3750984 197.729442,24.7275864 C199.015279,23.0532768 200.816946,21.7010736 203.089055,20.7111729 C204.792469,19.9753128 206.806663,19.4157804 209.083043,19.0320398 C211.386123,18.6536587 213.952458,18.4617884 216.719571,18.4617884 L219.492559,18.4617884 L219.048283,14 L216.177576,14 C213.239587,14 210.379026,14.2336744 207.663176,14.6945919 C204.937179,15.1662284 202.469632,15.8661798 200.326748,16.7826553 C197.151669,18.1353945 194.616306,19.9597702 192.788473,22.1877167 C190.945155,24.4526437 190,27.0434287 190,29.9043328 C190,32.2207111 190.496073,34.3194935 191.461519,36.1331502 C192.426965,37.9468069 193.712268,39.4806974 195.292331,40.7139196 C197.812209,42.6728189 200.811606,44.0620028 204.230182,44.8391311 C207.601233,45.6162594 211.540979,46 215.929807,46 L218.686774,45.9271107 C218.692114,45.9271107 220.932718,45.7824041 220.932718,45.7824041 L220.891601,45.2384143 L220.845144,42.0929204" id="Fill-6" fill="#0060A0"></path>
                    <path d="M260.79063,35.040637 C260.033909,36.734212 258.939044,38.1894563 257.510958,39.4052718 C256.479016,40.2652389 255.278001,40.9181768 253.907915,41.3750686 C252.542752,41.8319605 251.061592,42.0653487 249.474284,42.0653487 C248.040726,42.0653487 246.691432,41.8742449 245.406155,41.4969797 C244.125802,41.1147721 242.99373,40.5524437 242.00939,39.81933 C240.27982,38.5293795 239.025731,37.0104338 238.242746,35.2476661 C237.464686,33.4903899 237.067996,31.5469522 237.067996,29.4228446 C237.067996,27.5804503 237.45429,25.7803405 238.221407,24.0334981 C238.993996,22.2866557 240.041259,20.8528281 241.374686,19.7429984 C242.501287,18.7819879 243.707773,18.0757825 244.988125,17.6194399 C246.273949,17.1625481 247.786297,16.9341021 249.516962,16.9341021 C250.971858,16.9341021 252.37368,17.1466227 253.722428,17.5661724 C255.066251,17.9802306 256.230058,18.5804503 257.208926,19.3607908 C258.817027,20.6298737 260.002721,22.1856123 260.769838,24.0334981 C261.536408,25.8813839 261.922703,27.7660626 261.922703,29.6880835 C261.922703,31.5678199 261.54188,33.3465129 260.79063,35.040637 L260.79063,35.040637 Z M266.59982,22.7589237 C265.663083,20.7254256 264.234997,18.8989566 262.31994,17.2795167 C260.669161,15.8407468 258.7645,14.76771 256.637692,14.0615047 C254.50596,13.3503569 252.135666,13 249.516962,13 C247.019727,13 244.649434,13.3822076 242.411552,14.1576057 C240.1682,14.9269632 238.20554,16.036793 236.518101,17.476112 C234.62876,19.0637013 233.23241,20.8632619 232.338351,22.8599671 C231.444293,24.856123 231,27.0439319 231,29.4228446 C231,31.87095 231.523631,34.2070291 232.571441,36.4211971 C233.613232,38.6353652 235.089468,40.5046678 237.004525,42.0175728 C238.671172,43.3344316 240.559419,44.3218012 242.67583,44.996156 C244.792242,45.6655684 247.056387,46 249.474284,46 C252.045932,46 254.347283,45.6545854 256.378338,44.9752883 C258.405016,44.2954421 260.240735,43.2976387 261.906835,41.9752883 C263.870042,40.4404174 265.378013,38.5716639 266.430747,36.383855 C267.465425,34.1911038 268,31.8973092 268,29.4975288 C268,27.0439319 267.528896,24.7979132 266.59982,22.7589237 L266.59982,22.7589237 Z" id="Fill-7" fill="#0060A0"></path>
                    <path d="M343.786297,22.5750033 C342.976272,20.7904213 341.731599,19.1637813 340.074171,17.7466452 C338.644212,16.4923359 336.986784,15.5370852 335.148876,14.9183433 C333.321647,14.3039434 331.255736,14 329.020558,14 C326.877755,14 324.817718,14.335966 322.886899,15.0073553 C320.960887,15.6792873 319.241519,16.6551627 317.79127,17.9148996 C316.164812,19.3054407 314.936158,20.9006008 314.161908,22.6640153 C313.39727,24.4116898 313,26.3482435 313,28.4313414 C313,30.5779416 313.45387,32.6458423 314.357873,34.582396 C315.266148,36.5189497 316.557276,38.1770695 318.214704,39.5046509 C319.644663,40.6596358 321.302091,41.5410717 323.124514,42.1185641 C324.946937,42.7058262 326.914065,43 328.979442,43 C331.184185,43 333.187088,42.6955138 334.926747,42.1022814 C336.671745,41.5041642 338.287524,40.6173008 339.718016,39.473171 C341.411754,38.1195373 342.732784,36.4717299 343.631447,34.5558009 C344.540256,32.6349872 345,30.5991091 345,28.4997286 C345,26.3482435 344.586711,24.3590425 343.786297,22.5750033 L343.786297,22.5750033 Z M328.979442,38.9222736 C327.802049,38.9222736 326.67645,38.7648743 325.633616,38.4500758 C324.590782,38.1298497 323.661683,37.6733919 322.871415,37.0698471 C321.467086,36.0044169 320.429592,34.7289401 319.794707,33.2862945 C319.153949,31.8322509 318.834104,30.2001834 318.834104,28.4313414 C318.834104,26.8991409 319.149143,25.3929928 319.778688,23.9498044 C320.398088,22.5011884 321.265247,21.3103816 322.344925,20.4023507 C323.263879,19.6044993 324.260258,19.0118096 325.297752,18.6389362 C326.345926,18.2666055 327.595405,18.0777264 329.020558,18.0777264 C330.202757,18.0777264 331.369471,18.2508656 332.469439,18.597144 C333.558728,18.9325672 334.519331,19.4367876 335.30426,20.0718122 C336.614611,21.1209597 337.591233,22.4224888 338.210633,23.9394921 C338.845517,25.4825476 339.165896,27.0673953 339.165896,28.6625554 C339.165896,30.2001834 338.850857,31.7063315 338.241069,33.1023002 C337.616863,34.5091239 336.718734,35.7210982 335.551486,36.7235687 C334.720636,37.4269806 333.734402,37.977878 332.618949,38.3556362 C331.503496,38.7279669 330.280182,38.9222736 328.979442,38.9222736 L328.979442,38.9222736 Z" id="Fill-8" fill="#B8D144"></path>
                    <path d="M333.367338,79.3188219 C331.140844,78.8403825 329.333708,77.2497058 327.123426,73.8248321 C324.160892,69.235039 324.327339,62.3062685 325.618381,53.3814917 C337.030245,58.0594466 344.695438,54.9409892 355,50.7151326 L353.683018,46.9827675 C338.582306,51.401075 334.260638,50.4501095 324.834785,46.3591836 L323.413503,45.7409753 C313.861734,41.5774772 306.959062,38.5627712 294,43.7395933 L295.227814,47.4977619 C305.89283,44.8469924 311.468253,46.577438 321.74093,51.5989016 C320.973006,53.7663935 318.825412,60.5285166 319.175598,67.4003045 C316.196851,68.8861545 312.100534,72.108901 309.817297,76.969093 C307.722122,81.4132039 306.305704,88.627963 311.468253,97.7242254 L311.624972,98 L315.292743,96.5808089 L315.199252,96.2636412 C311.755211,84.4434995 313.04085,79.8644579 320.147798,73.0604041 C320.470964,74.095231 320.847631,75.0978035 321.365345,76.0541448 C324.029572,81.0078743 327.269337,83.8097016 331.272164,84.6149851 C336.205037,85.6078813 341.873951,83.4667305 348.630713,78.0555268 L346.299919,74.8537456 C340.641273,78.5081627 336.413636,79.9687469 333.367338,79.3188219" id="Fill-9" fill="#B8D144"></path>
                    <path d="M284.325577,68.379314 C278.651665,65.3052663 271.77255,66.5020621 266.905549,68.4158449 C266.380106,62.464035 264.278879,56.5438488 262.707441,52.8220593 C273.723263,46.9961992 279.928051,44.8926739 292.043662,47.0648991 L293,43.1740861 C278.278367,38.5030385 270.780892,42.0879734 260.406795,47.0594468 L258.751678,47.8500408 C248.333024,52.8002498 243.504603,54.0815574 226.045452,50.2436323 L225,54.1186335 C237.347088,58.1517535 245.77971,60.903566 258.351755,55.0515345 C259.907435,61.8048431 260.506233,66.0222533 260.506233,69.2538745 C260.506233,72.2063343 260.023173,74.3682 259.349933,76.9618936 L258.756568,79.2338973 C257.243272,84.9327171 255.209966,92.5562244 255.209966,99.6519421 C255.209966,103.168177 255.766925,106.527929 257.069935,109.49402 C257.085693,109.543091 257.091127,109.596524 257.096561,109.648322 L257.112319,109.638508 C257.165026,109.74701 257.18024,109.88441 257.227514,110 L260.968644,108.618369 C258.929905,100.865095 260.900179,94.5490666 263.874065,84.9856051 L266.317075,76.8779271 C266.574091,75.9706523 266.737103,75.0213942 266.852842,74.0623219 L267.276673,74.0094339 C280.94253,72.1278201 286.049159,71.426645 288.59704,88.5072926 L292.574538,88.2755667 C292.931535,78.2377488 290.15761,71.5422353 284.325577,68.379314" id="Fill-10" fill="#0060A0"></path>
                    <path d="M67,78 C66.9432348,78 66.5264,77.9946961 65.7494957,77.983558 C64.9720348,77.9724199 64.0103652,77.967116 62.8633739,77.967116 C62.0669913,77.967116 61.3385043,77.9724199 60.6773565,77.983558 C60.0167652,77.9946961 59.4574609,78 59,78 C59.0089043,77.6525967 59.0172522,76.8999779 59.024487,75.7421436 C59.0306087,74.5853702 59.0345043,73.3888177 59.0345043,72.1524862 C59.0345043,71.4751823 59.0317217,70.5793591 59.0272696,69.4634254 C59.0228174,68.3480221 59.0133565,67.1933702 59,66 C59.4435478,66 59.9984,66.0058343 60.6645565,66.016442 C61.330713,66.0281105 62.0174609,66.032884 62.723687,66.032884 C63.9185391,66.032884 64.8907826,66.0281105 65.6409739,66.016442 C66.3911652,66.0058343 66.7974261,66 66.8608696,66 L66.8608696,67.2596685 C66.7979826,67.2596685 66.4073043,67.2543646 65.6882783,67.2432265 C64.9686957,67.2320884 64.0738087,67.2262541 63.0030609,67.2262541 L61.6295652,67.2262541 L60.5649391,67.2262541 C60.5649391,67.910453 60.5588174,68.5935912 60.547687,69.2746077 C60.5354435,69.9561547 60.5304348,70.5995138 60.5304348,71.2041547 L61.5243826,71.2041547 L62.5472696,71.2041547 C63.6425043,71.2041547 64.6214261,71.1993812 65.4834783,71.1877127 C66.3455304,71.177105 66.8041043,71.1712707 66.8608696,71.1712707 L66.8608696,72.4309392 C66.8107826,72.4309392 66.297113,72.4256354 65.3198609,72.4144972 C64.3426087,72.4033591 63.4493913,72.3975249 62.6407652,72.3975249 L61.5711304,72.3975249 L60.5304348,72.3975249 C60.5304348,73.5320221 60.5343304,74.4326188 60.5415652,75.0987845 C60.5493565,75.7649503 60.5577043,76.3234475 60.5649391,76.7737459 C60.9322435,76.784884 61.3785739,76.7933702 61.9028174,76.7981436 C62.4265043,76.8039779 62.9908174,76.8066298 63.5957565,76.8066298 C64.5240348,76.8066298 65.3053913,76.801326 65.9381565,76.7901878 C66.5703652,76.7790497 66.9248696,76.7737459 67,76.7737459 L67,78" id="Fill-11" fill="#0060A0"></path>
                    <path d="M77,78.9905039 C76.9624183,78.9905039 76.8458606,78.9916211 76.6481481,78.9955313 C76.4509804,78.9983242 76.2941176,79 76.1770153,79 C75.0108932,79 74.0985839,78.9480509 73.4389978,78.8447113 C72.7794118,78.7408132 72.1350763,78.5352512 71.5065359,78.2269082 C70.6862745,77.8247217 70.0631808,77.2907074 69.6377996,76.6243067 C69.2124183,75.9579061 69,75.2160954 69,74.3994334 C69,73.4436819 69.2374728,72.5968559 69.7124183,71.8583968 C70.1873638,71.1193792 70.872549,70.5429119 71.7668845,70.1278777 C72.2913943,69.8770698 72.8927015,69.6865898 73.5713508,69.5581136 C74.25,69.4290787 74.916122,69.364282 75.5702614,69.364282 L75.5359477,65 L77,65 C77,65.1262419 76.9940087,66.007142 76.9831155,67.6438176 C76.9711329,69.2804932 76.9656863,70.9383952 76.9656863,72.618641 C76.9656863,73.946415 76.9700436,75.14683 76.9787582,76.2198859 C76.9869281,77.2929418 76.9940087,78.2168535 77,78.9905039 L77,78.9905039 Z M75.5702614,72.3672745 L75.5702614,71.5372062 L75.5702614,70.6211148 C74.9509804,70.6211148 74.3681917,70.6747397 73.8202614,70.7814308 C73.2723312,70.8881219 72.8033769,71.0333559 72.4133987,71.215457 C71.7941176,71.5053665 71.3148148,71.9192834 70.9744009,72.4572078 C70.6339869,72.9951323 70.4640523,73.625783 70.4640523,74.3491601 C70.4640523,74.9971272 70.627451,75.5540438 70.9542484,76.0199098 C71.2815904,76.4857758 71.6889978,76.8505366 72.1759259,77.1147508 C72.6018519,77.3476838 73.0816993,77.5219646 73.6154684,77.6387104 C74.1486928,77.7548977 74.7091503,77.8129913 75.2957516,77.8129913 L75.4155773,77.8129913 L75.5359477,77.8129913 C75.5359477,77.7560148 75.5413943,77.2862387 75.5533769,76.401987 C75.5642702,75.5182939 75.5702614,74.1726449 75.5702614,72.3672745 L75.5702614,72.3672745 Z" id="Fill-12" fill="#0060A0"></path>
                    <path d="M89,78.7506121 L87.5067198,78.7506121 L87.5067198,77.6477253 L87.497049,77.6380459 C87.0476428,77.9301372 86.487876,78.2301999 85.8171798,78.5382338 C85.1464837,78.8456983 84.4871649,79 83.8397924,79 C82.962028,79 82.2754035,78.736947 81.7799189,78.2102716 C81.2832966,77.6835962 81.0358387,76.9445425 81.0358387,75.9936799 L81.0358387,74.1591414 L81.0358387,72.6127085 C81.0358387,72.0279565 81.0295812,71.3076923 81.0182038,70.4502078 C81.0056887,69.5927233 81,69.1093207 81,69 L82.529119,69 C82.529119,69.0831293 82.5228614,69.5454649 82.511484,70.3852986 C82.4989689,71.2251324 82.4932802,71.8952912 82.4932802,72.3957752 L82.4932802,74.0498206 L82.4932802,75.4544782 C82.5063642,76.2111826 82.6383417,76.7663269 82.8897817,77.1187724 C83.1406528,77.4712179 83.5462561,77.6477253 84.1065918,77.6477253 C84.6794425,77.6477253 85.3091801,77.501395 85.9952357,77.2075955 C86.6807225,76.913796 87.1847401,76.6575756 87.5067198,76.4377954 L87.5067198,75.3662244 L87.5067198,72.9856517 C87.5067198,72.3069521 87.5004622,71.4938792 87.4890848,70.5470022 C87.4765697,69.6001253 87.470881,69.0842681 87.470881,69 L89,69 C89,69.1093207 88.9937424,69.4708763 88.9823651,70.0840972 C88.96985,70.6973182 88.9641613,71.7426977 88.9641613,73.2202357 C88.9641613,74.0486819 88.9670056,74.776348 88.9732632,75.4026647 C88.9789519,76.0289814 88.9874849,77.1449638 89,78.7506121" id="Fill-13" fill="#0060A0"></path>
                    <path d="M98,76.8218525 L97.89016,78 L97.6569529,78 L97.3874932,78 C96.6012986,78 95.8675891,77.9277403 95.1852825,77.7832209 C94.5024349,77.639225 93.8904692,77.4261112 93.3483033,77.1433558 C92.6108062,76.7543053 92.0356342,76.2395858 91.6211641,75.5976263 C91.206694,74.9556667 91,74.2404003 91,73.4513032 C91,72.7444147 91.1882971,72.0956481 91.5659736,71.5039562 C91.9431089,70.9122644 92.4365773,70.4279148 93.0452964,70.0509076 C93.5934142,69.7095066 94.2497488,69.4492669 95.013759,69.2696649 C95.7777692,69.0900628 96.5677514,69 97.3837057,69 L97.5887764,69 L97.7581356,69 L97.8311819,70.1781475 L97.6894179,70.1781475 L97.547654,70.1781475 C96.8707583,70.1781475 96.293422,70.2179428 95.8145629,70.2975332 C95.3357038,70.3776472 94.8709129,70.5085525 94.4201902,70.6907726 C93.8168818,70.9274494 93.3380227,71.2986968 92.9846951,71.805562 C92.6302852,72.3129509 92.4538919,72.8554224 92.4538919,73.4335001 C92.4538919,74.1236328 92.6200046,74.7032814 92.9527711,75.1719223 C93.2849965,75.6410868 93.7259797,76.0018618 94.2751797,76.2552944 C94.7020948,76.4558413 95.1842004,76.6008843 95.7209554,76.6888527 C96.2577104,76.7773447 96.8253073,76.8218525 97.4237458,76.8218525 L97.7527247,76.8218525 L98,76.8218525" id="Fill-14" fill="#0060A0"></path>
                    <path d="M106,73.3625804 C106,74.9511473 105.994296,76.2447759 105.983926,77.2440358 C105.972519,78.2432956 105.967333,78.7807892 105.967333,78.8576553 C105.908741,78.8644878 105.637037,78.8895405 105.151185,78.9339521 C104.665852,78.9777942 104.04,79 103.27363,79 C102.793481,79 102.311259,78.9516028 101.825407,78.8559472 C101.340074,78.7602915 100.92163,78.6225019 100.570593,78.4431475 C100.102889,78.2062859 99.7238519,77.8834482 99.4345185,77.4734954 C99.1446667,77.0641121 99,76.57103 99,75.995388 C99,75.3872915 99.1711111,74.8611854 99.5133333,74.4165006 C99.8555556,73.9718157 100.331556,73.6119683 100.940815,73.336389 C101.321926,73.1638672 101.829556,73.0084268 102.465259,72.8706371 C103.099926,72.7334168 103.824815,72.6297899 104.638889,72.5591869 C104.60363,72.0592723 104.489037,71.6493196 104.295111,71.3287593 C104.100667,71.0087684 103.815481,70.7650743 103.439556,70.5982463 C103.180815,70.4832318 102.893037,70.4012412 102.575704,70.3534134 C102.25837,70.3055856 101.888148,70.2811023 101.465037,70.2811023 C101.200593,70.2811023 100.976074,70.2885042 100.790444,70.3021693 C100.605333,70.315265 100.353852,70.3323464 100.037037,70.352844 L100.177037,69.0717417 C100.265185,69.0637704 100.439926,69.0501053 100.701778,69.0301771 C100.96363,69.0102488 101.321407,69 101.774593,69 C102.467852,69 103.086963,69.0791437 103.631407,69.2357228 C104.175333,69.3928714 104.626963,69.6473837 104.985259,69.9992598 C105.320741,70.3323464 105.573259,70.7440073 105.743852,71.2336731 C105.914444,71.7244776 106,72.4339236 106,73.3625804 L106,73.3625804 Z M104.638889,75.673689 L104.638889,74.8492285 C104.638889,74.5167113 104.635778,74.1323806 104.630074,73.6973752 C104.371852,73.7110403 103.920741,73.76627 103.276222,73.8653419 C102.631704,73.9644138 102.089852,74.1067585 101.650148,74.292376 C101.321926,74.4273188 101.030519,74.6283095 100.775926,74.8970563 C100.520815,75.1658031 100.393259,75.4983203 100.393259,75.894608 C100.393259,76.329044 100.50163,76.6797814 100.718889,76.9451119 C100.936148,77.2104424 101.233259,77.4137106 101.608667,77.5543472 C101.896444,77.6630986 102.215333,77.7416728 102.564815,77.7895007 C102.914296,77.8373285 103.282444,77.8612424 103.670296,77.8612424 C103.787481,77.8612424 103.93163,77.8583955 104.101704,77.8515629 C104.271778,77.8452998 104.450667,77.8390366 104.638889,77.8322041 L104.638889,77.1996242 L104.638889,75.673689 L104.638889,75.673689 Z" id="Fill-15" fill="#0060A0"></path>
                    <path d="M115,77.7649882 L114.841391,78.9649882 C114.799652,78.9723294 114.698435,78.9802353 114.537739,78.9881412 C114.376,78.9954824 114.236696,79 114.119826,79 C112.916696,79 112.007304,78.7272471 111.39113,78.1828706 C110.775478,77.6379294 110.467652,76.8016 110.467652,75.6738824 C110.467652,74.9668706 110.47287,74.2090353 110.483826,73.3992471 C110.494783,72.5894588 110.5,71.5859765 110.5,70.3882353 L109,70.3882353 L109,69.2588235 L110.565217,69.2588235 L110.565217,67 L111.869565,67 L111.869565,69.2588235 L115,69.2588235 L115,70.3882353 L111.869565,70.3882353 C111.869565,70.5220706 111.864348,70.9201882 111.853391,71.5825882 C111.842435,72.2455529 111.837217,72.7357176 111.837217,73.0542118 L111.837217,74.0384941 L111.837217,75.4237176 C111.837217,76.2521412 112.041217,76.8490353 112.450783,77.2155294 C112.859304,77.5814588 113.490087,77.7649882 114.34313,77.7649882 L114.719826,77.7649882 L115,77.7649882" id="Fill-16" fill="#0060A0"></path>
                    <path d="M117,67.6383134 L119,67.6383134 L119,66 L117,66 L117,67.6383134 Z M118.914227,79 L117.085092,79 C117.091219,78.8996268 117.100749,78.2801012 117.111641,77.1414232 C117.121852,76.0027452 117.127297,75.0620255 117.127297,74.3192639 C117.127297,73.6712993 117.125255,72.9592073 117.121852,72.1818728 C117.117767,71.4056535 117.106195,70.4950457 117.085092,69.450607 L118.914227,69.450607 C118.902655,70.3567537 118.892444,71.2043495 118.884275,71.9933942 C118.876106,72.7829966 118.872022,73.4861665 118.872022,74.102904 C118.872022,75.5689101 118.878148,76.7449492 118.893125,77.6321366 C118.90742,78.519324 118.914227,78.9749067 118.914227,79 L118.914227,79 Z" id="Fill-17" fill="#0060A0"></path>
                    <path d="M130,79 L128.471341,79 C128.47703,78.8194966 128.484426,78.2250313 128.493529,77.2143264 C128.502631,76.2047603 128.506614,75.5801162 128.506614,75.3421023 L128.506614,73.8610637 L128.506614,72.4272862 C128.487271,71.687621 128.345612,71.1569297 128.081638,70.834643 C127.817665,70.513495 127.360262,70.3523517 126.709999,70.3523517 C126.316882,70.3523517 125.830465,70.4656645 125.251316,70.6922902 C124.671597,70.9189158 124.085621,71.2093156 123.493386,71.5623505 L123.493386,72.7148389 L123.493386,74.6229359 C123.493386,75.3717117 123.499076,76.2759367 123.511023,77.3344722 C123.52297,78.3930076 123.528659,78.948753 123.528659,79 L122,79 C122,78.9555859 122.005689,78.5615534 122.017636,77.8201799 C122.029583,77.0782371 122.035272,75.9747181 122.035272,74.509623 C122.035272,73.8360096 122.033566,73.0456668 122.03129,72.1397335 C122.027877,71.2338003 122.017636,70.2703565 122,69.2488327 L123.493386,69.2488327 L123.493386,70.3523517 L123.502489,70.3717117 C124.399659,69.859811 125.147774,69.5033595 125.746835,69.3023574 C126.345897,69.1007858 126.843692,69 127.241929,69 C128.062864,69 128.721661,69.2585127 129.218888,69.7755381 C129.715545,70.2925635 129.964728,71.0003416 129.964728,71.899442 L129.964728,73.9954447 L129.964728,75.4258057 C129.964728,76.010591 129.970417,76.7411457 129.982364,77.6174695 C129.994311,78.4943628 130,78.9555859 130,79" id="Fill-18" fill="#0060A0"></path>
                    <path d="M140,69 C140,69.1394344 139.993983,69.7660494 139.982496,70.8787249 C139.971009,71.9914003 139.965538,73.050318 139.965538,74.0554778 C139.965538,74.7386505 139.971009,75.4347026 139.982496,76.1425143 C139.993983,76.850886 140,77.49878 140,78.0867565 C140,79.1680733 139.817846,80.0147594 139.454085,80.6284949 C139.089778,81.2416703 138.572308,81.7316507 137.900581,82.0984361 C137.371624,82.376185 136.727795,82.5962561 135.969094,82.7580897 C135.210393,82.9188032 134.289778,83 133.207795,83 L133.059556,81.8100476 C133.782701,81.7966081 134.432,81.7574097 135.006906,81.6913323 C135.581265,81.624695 136.103658,81.5037399 136.573538,81.3273469 C137.296684,81.049598 137.800479,80.6816927 138.084923,80.224751 C138.368821,79.7672493 138.51706,79.2106316 138.529641,78.5548978 L138.307556,78.5548978 L138.086017,78.5548978 C137.351932,78.5548978 136.595966,78.4647414 135.819214,78.2844286 C135.042462,78.1035559 134.379487,77.8168473 133.830838,77.4231831 C133.288205,77.049678 132.847316,76.5613775 132.508171,75.9594016 C132.169026,75.3574257 132,74.6126555 132,73.725091 C132,72.8380865 132.237949,72.0546778 132.71494,71.3771049 C133.191932,70.698972 133.829744,70.1602736 134.628923,69.7610096 C135.198906,69.475421 135.820308,69.2777489 136.492034,69.1663133 C137.164308,69.0559978 137.977162,69 138.931692,69 L139.446974,69 L140,69 L140,69 Z M138.564103,74.0543578 C138.564103,73.5962961 138.561915,73.023999 138.558085,72.3369065 C138.554256,71.650374 138.54441,70.9347226 138.529641,70.1905124 L138.408752,70.1905124 L138.28841,70.1905124 C137.71241,70.1905124 137.209709,70.2285909 136.779761,70.3047478 C136.349265,70.3814647 135.896342,70.524259 135.419897,70.7336907 C134.788103,71.0136795 134.305641,71.424703 133.970872,71.9645214 C133.63665,72.5054598 133.469812,73.1163953 133.469812,73.7967681 C133.469812,74.4967401 133.635009,75.0942362 133.965402,75.5903764 C134.295795,76.0870765 134.738872,76.4712212 135.295726,76.7450502 C135.672068,76.9298428 136.109128,77.0787968 136.606906,77.1930323 C137.104137,77.3078277 137.630906,77.3649454 138.186667,77.3649454 L138.372103,77.3649454 L138.529641,77.3649454 C138.529641,77.2887884 138.535111,76.9343226 138.546598,76.300988 C138.558085,75.6687732 138.564103,74.9195232 138.564103,74.0543578 L138.564103,74.0543578 Z" id="Fill-19" fill="#0060A0"></path>
                    <path d="M157,77.6648649 C156.993479,77.7216432 156.977177,77.8807351 156.949463,78.1427027 C156.922292,78.4052324 156.895665,78.6908108 156.871211,79 L156.710361,79 L156.549511,79 C155.054039,79 153.723765,78.8054919 152.559232,78.4153514 C151.395242,78.0263351 150.438836,77.4613622 149.691644,76.7209946 C149.170511,76.2083027 148.758061,75.5944216 148.454293,74.878227 C148.151069,74.1631568 148,73.3463351 148,72.4283243 C148,71.6058811 148.149438,70.8542703 148.449946,70.1734919 C148.749909,69.4927135 149.142253,68.8996324 149.626977,68.3925622 C150.331784,67.6583784 151.278408,67.0754162 152.466852,66.6453622 C153.655839,66.2147459 154.927424,66 156.281609,66 L156.511472,66 L156.695146,66 C156.701123,66.1152432 156.713622,66.2985081 156.732098,66.5509189 C156.75003,66.8033297 156.771767,67.0759784 156.79622,67.3699892 L156.639717,67.3699892 L156.483215,67.3699892 C155.715916,67.3699892 154.921447,67.4571243 154.099263,67.6313946 C153.27708,67.8051027 152.56847,68.0659459 151.973433,68.4133622 C151.200157,68.8692757 150.60512,69.4528 150.187779,70.1644973 C149.770438,70.8756324 149.562311,71.6429838 149.562311,72.4648649 C149.562311,73.3193514 149.748702,74.0956973 150.123657,74.7944649 C150.497524,75.4937946 151.089844,76.0801297 151.900072,76.5545946 C152.562492,76.9464216 153.303707,77.2314378 154.123174,77.4079568 C154.94264,77.5856 155.757215,77.6738595 156.567444,77.6738595 L156.741879,77.6738595 C156.821761,77.6738595 156.90762,77.6710486 157,77.6648649" id="Fill-20" fill="#0060A0"></path>
                    <path d="M167,78 L165.470881,78 C165.47657,77.8223915 165.484534,77.2885181 165.493067,76.3968081 C165.502169,75.506146 165.50672,74.9188329 165.50672,74.6343449 L165.50672,73.2716318 L165.50672,71.952404 C165.486809,71.2718333 165.345161,70.7835409 165.081775,70.4870028 C164.818958,70.1915125 164.362156,70.0432435 163.713077,70.0432435 C163.346725,70.0432435 162.877409,70.143312 162.305696,70.343449 C161.733414,70.5430621 161.129275,70.8144521 160.49328,71.1565712 L160.529119,78 L159,78 C159.005689,77.7694757 159.013653,76.8400435 159.022186,75.2111796 C159.031288,73.5823157 159.035839,72.2421311 159.035839,71.189578 C159.035839,70.5037682 159.034132,69.6398259 159.031288,68.5961794 C159.027875,67.5525329 159.017635,66.3538065 159,65 L160.529119,65 L160.49328,70.0343368 L160.502951,70.0432435 C161.416554,69.5759078 162.164616,69.251602 162.746,69.070326 C163.327384,68.8890501 163.825713,68.798936 164.241556,68.798936 C165.062433,68.798936 165.721183,69.0367952 166.218943,69.5125136 C166.715566,69.988232 166.964161,70.6394632 166.964161,71.4667311 L166.964161,73.3952767 L166.964161,74.711361 C166.964161,75.2494257 166.968712,75.8671261 166.978383,76.5644622 C166.987485,77.2617983 166.99488,77.7401362 167,78" id="Fill-21" fill="#0060A0"></path>
                    <path d="M170,67.6383134 L172,67.6383134 L172,66 L170,66 L170,67.6383134 Z M171.914879,79 L170.085121,79 C170.091931,78.8996268 170.100783,78.2801012 170.111679,77.1414232 C170.121893,76.0027452 170.127341,75.0620255 170.127341,74.3192639 C170.127341,73.6712993 170.125298,72.9592073 170.121893,72.1818728 C170.118488,71.4056535 170.106231,70.4950457 170.085121,69.450607 L171.914879,69.450607 C171.903303,70.3567537 171.893088,71.2043495 171.884917,71.9933942 C171.876745,72.7829966 171.872659,73.4861665 171.872659,74.102904 C171.872659,75.5689101 171.879469,76.7449492 171.893769,77.6321366 C171.908069,78.519324 171.914879,78.9749067 171.914879,79 L171.914879,79 Z" id="Fill-22" fill="#0060A0"></path>
                    <path d="M176,78 L175,78 C175.003722,77.9292709 175.00856,77.0648047 175.014514,75.4066014 C175.020469,73.748398 175.023074,72.372587 175.023074,71.2786443 C175.023074,70.5750212 175.02233,69.6869786 175.020469,68.6139927 C175.018236,67.5410067 175.011537,66.3365171 175,65 L176,65 C175.992185,65.911095 175.98623,66.9646959 175.982881,68.1618506 C175.978787,69.3590054 175.976926,70.3680732 175.976926,71.189578 C175.976926,72.9813807 175.980648,74.5478983 175.988463,75.8896546 C175.996278,77.231411 176,77.9350341 176,78" id="Fill-23" fill="#0060A0"></path>
                    <path d="M187,78.9905039 C186.96296,78.9905039 186.84585,78.9916211 186.648669,78.9955313 C186.451488,78.9983242 186.29407,79 186.177504,79 C185.011303,79 184.098386,78.9480509 183.438755,78.8447113 C182.779124,78.7408132 182.13529,78.5352512 181.506162,78.2269082 C180.685845,77.8247217 180.063253,77.2907074 179.637843,76.6243067 C179.211888,75.9579061 179,75.2160954 179,74.3994334 C179,73.4436819 179.236944,72.5968559 179.711922,71.8583968 C180.1869,71.1193792 180.872132,70.5429119 181.767073,70.1278777 C182.291618,69.8770698 182.892422,69.6865898 183.571117,69.5581136 C184.249813,69.4290787 184.91598,69.364282 185.570164,69.364282 L185.536393,65 L187,65 C187,65.1262419 186.994553,66.007142 186.983114,67.6438176 C186.971676,69.2804932 186.966229,70.9383952 186.966229,72.618641 C186.966229,73.946415 186.970586,75.14683 186.978757,76.2198859 C186.987472,77.2929418 186.994553,78.2168535 187,78.9905039 L187,78.9905039 Z M185.570164,72.3672745 L185.570164,71.5372062 L185.570164,70.6211148 C184.951386,70.6211148 184.368013,70.6747397 183.820045,70.7814308 C183.272077,70.8881219 182.803091,71.0333559 182.413086,71.215457 C181.794308,71.5053665 181.314972,71.9192834 180.974535,72.4572078 C180.634098,72.9951323 180.463607,73.625783 180.463607,74.3491601 C180.463607,74.9971272 180.627017,75.5540438 180.954381,76.0199098 C181.281201,76.4857758 181.688636,76.8505366 182.176142,77.1147508 C182.601552,77.3476838 183.081433,77.5219646 183.615238,77.6387104 C184.149043,77.7548977 184.708994,77.8129913 185.295636,77.8129913 L185.415469,77.8129913 L185.536393,77.8129913 C185.536393,77.7560148 185.54184,77.2862387 185.553278,76.401987 C185.564717,75.5182939 185.570164,74.1726449 185.570164,72.3672745 L185.570164,72.3672745 Z" id="Fill-24" fill="#0060A0"></path>
                    <path d="M195,70.2214286 C194.686582,70.2965143 194.206582,70.4554286 193.561013,70.6981714 C192.915443,70.9404 192.171139,71.2638857 191.329114,71.6681143 L191.329114,72.5434286 L191.329114,73.9932 C191.329114,74.6787429 191.334177,75.4918286 191.34481,76.4324571 C191.355443,77.3730857 191.360506,77.8956 191.360506,78 L190,78 C190,77.9012571 190.005063,77.5767429 190.015696,77.0249143 C190.026329,76.4741143 190.031392,75.5314286 190.031392,74.1968571 C190.031392,73.6578857 190.028354,72.9034286 190.023797,71.9345143 C190.018228,70.9656 190.010127,70.0517143 190,69.1928571 L191.329114,69.1928571 L191.329114,70.5109714 L191.337722,70.5192 C191.980253,70.1489143 192.614684,69.828 193.240506,69.5559429 C193.866835,69.2838857 194.367089,69.0982286 194.742785,69 L195,70.2214286" id="Fill-25" fill="#0060A0"></path>
                    <path d="M205,73.751773 L198.409128,73.751773 C198.415069,74.4280851 198.551715,75.0487943 198.819066,75.6133333 C199.085876,76.1778723 199.496354,76.6448227 200.048879,77.0147518 C200.401566,77.2507801 200.802322,77.4283688 201.251688,77.546383 C201.701053,77.6643972 202.241696,77.7234043 202.873616,77.7234043 C203.219822,77.7234043 203.536862,77.7131915 203.825817,77.692766 C204.114232,77.6729078 204.291925,77.6587234 204.358898,77.6524823 L204.194167,78.929078 C204.145558,78.9364539 203.984067,78.9506383 203.710775,78.9704965 C203.436403,78.9897872 203.113962,79 202.742911,79 C201.768566,79 200.921145,78.867234 200.200108,78.6011348 C199.478531,78.3356028 198.886578,77.9696454 198.424251,77.502695 C198.028355,77.1123404 197.691871,76.6130496 197.414799,76.0053901 C197.138266,75.3982979 197,74.7225532 197,73.9804255 C197,73.2513475 197.10316,72.5920567 197.310019,72.0036879 C197.516878,71.4153191 197.827437,70.8678014 198.242236,70.3628369 C198.600864,69.9276596 199.046989,69.591773 199.57953,69.3546099 C200.112611,69.1180142 200.665136,69 201.237645,69 C201.803133,69 202.305428,69.0896454 202.744531,69.2683688 C203.182555,69.4476596 203.563327,69.72 203.886308,70.0848227 C204.244937,70.4944681 204.519309,70.9982979 204.707804,71.5968794 C204.89684,72.1948936 204.994059,72.9131915 205,73.751773 L205,73.751773 Z M203.582231,72.6879433 C203.485552,71.8913475 203.228463,71.2666667 202.813124,70.8139007 C202.396705,70.3611348 201.848501,70.1347518 201.169052,70.1347518 C200.489063,70.1347518 199.921415,70.364539 199.466109,70.8235461 C199.010262,71.2831206 198.694842,71.9043972 198.518769,72.6879433 L203.582231,72.6879433 L203.582231,72.6879433 Z" id="Fill-26" fill="#0060A0"></path>
                    <path d="M215,79 L213.471341,79 C213.47703,78.8194966 213.484426,78.2250313 213.493529,77.2143264 C213.502631,76.2047603 213.506614,75.5801162 213.506614,75.3421023 L213.506614,73.8610637 L213.506614,72.4272862 C213.487271,71.687621 213.345612,71.1569297 213.081638,70.834643 C212.817665,70.513495 212.360262,70.3523517 211.709999,70.3523517 C211.316882,70.3523517 210.830465,70.4656645 210.251316,70.6922902 C209.671597,70.9189158 209.085621,71.2093156 208.493386,71.5623505 L208.493386,72.7148389 L208.493386,74.6229359 C208.493386,75.3717117 208.499076,76.2759367 208.511023,77.3344722 C208.52297,78.3930076 208.528659,78.948753 208.528659,79 L207,79 C207,78.9555859 207.005689,78.5615534 207.017636,77.8201799 C207.029583,77.0782371 207.035272,75.9747181 207.035272,74.509623 C207.035272,73.8360096 207.033566,73.0456668 207.03129,72.1397335 C207.027877,71.2338003 207.017636,70.2703565 207,69.2488327 L208.493386,69.2488327 L208.493386,70.3523517 L208.502489,70.3717117 C209.399659,69.859811 210.147774,69.5033595 210.746835,69.3023574 C211.345897,69.1007858 211.843692,69 212.241929,69 C213.062864,69 213.721661,69.2585127 214.218888,69.7755381 C214.715545,70.2925635 214.964728,71.0003416 214.964728,71.899442 L214.964728,73.9954447 L214.964728,75.4258057 C214.964728,76.010591 214.970417,76.7411457 214.982364,77.6174695 C214.994311,78.4943628 215,78.9555859 215,79" id="Fill-27" fill="#0060A0"></path>
                    <path d="M220,76.5663158 L220,76.6368421 L217.8631,81 L217,80.5836842 C217.048974,80.4831579 217.267658,79.9742105 217.657023,79.0573684 C218.046388,78.14 218.44642,77.1205263 218.857605,76 L220,76.5663158" id="Fill-28" fill="#0060A0"></path>
                    <path d="M54,100 L52,100 C52.0049787,99.641989 52.0142248,99.0028729 52.0263158,98.0826519 C52.0376956,97.1629613 52.0440967,95.8422983 52.0440967,94.1211934 C52.0440967,93.4401768 52.0405405,92.5470055 52.0348506,91.4416796 C52.0291607,90.3363536 52.0170697,89.1896575 52,88 L54,88 C53.9871977,88.8549834 53.9772404,89.8478674 53.9687055,90.9802431 C53.9594595,92.1120884 53.9559033,93.0365525 53.9559033,93.7536354 C53.9559033,95.5702099 53.9608819,96.9757348 53.972973,97.9702099 C53.985064,98.9652155 53.9935989,99.641989 54,100" id="Fill-29" fill="#0060A0"></path>
                    <path d="M65,100 L63.470881,100 C63.4765697,99.8200661 63.4845339,99.2250313 63.4930669,98.2148958 C63.5021688,97.2047603 63.5067198,96.5806856 63.5067198,96.3426717 L63.5067198,94.8610637 L63.5067198,93.4278556 C63.4873782,92.6881904 63.3451611,92.1569297 63.0817749,91.8352124 C62.8172509,91.513495 62.3598805,91.3523517 61.7096637,91.3523517 C61.3165754,91.3523517 60.8307616,91.4656645 60.2510844,91.6928596 C59.6714072,91.9194853 59.0854725,92.209885 58.4932802,92.5623505 L58.4932802,93.7148389 L58.4932802,95.6229359 C58.4932802,96.3717117 58.4989689,97.2759367 58.5109152,98.3350416 C58.5228614,99.393577 58.529119,99.9493224 58.529119,100 L57,100 C57,99.9555859 57.0056887,99.5621228 57.0176349,98.8201799 C57.0295812,98.0782371 57.0358387,96.9747181 57.0358387,95.5101925 C57.0358387,94.8360096 57.0341321,94.0456668 57.0312878,93.1403029 C57.0278746,92.2343697 57.0176349,91.2703565 57,90.2488327 L58.4932802,90.2488327 L58.4932802,91.3523517 L58.502951,91.3717117 C59.399488,90.8603804 60.1475503,90.5039289 60.746569,90.3023574 C61.3455877,90.1013552 61.8439167,90 62.2415559,90 C63.0630022,90 63.7217521,90.2585127 64.2189433,90.7755381 C64.7155657,91.2931329 64.9641613,92.0009111 64.9641613,92.9000114 L64.9641613,94.9954447 L64.9641613,96.4258057 C64.9641613,97.010591 64.96985,97.7417151 64.9817962,98.6180389 C64.9937424,99.4949322 65,99.9555859 65,100" id="Fill-30" fill="#0060A0"></path>
                    <path d="M73,96.352334 C73,96.7838055 72.8848,97.1683106 72.6549647,97.5058493 C72.4251294,97.8439041 72.1252706,98.1174447 71.7542588,98.326987 C71.3640471,98.5489162 70.9026824,98.7161372 70.3690353,98.8296823 C69.8353882,98.9432274 69.2458353,99 68.6003765,99 C68.2875294,99 67.9633882,98.9855488 67.6279529,98.9566464 C67.2925176,98.9267118 67.1022118,98.9091639 67.0576,98.9029705 L67,97.7742287 C67.0576,97.7809382 67.2789647,97.7984861 67.6640941,97.8273885 C68.0497882,97.856807 68.4337882,97.8707421 68.8160941,97.8707421 C69.0391529,97.8707421 69.3254588,97.8531942 69.6761412,97.8180984 C70.0268235,97.7824865 70.3165176,97.7179722 70.5463529,97.6235233 C70.8642824,97.4944948 71.0997647,97.3350155 71.2533647,97.1466338 C71.4058353,96.9582521 71.4826353,96.7311618 71.4826353,96.4663952 C71.4826353,96.2274343 71.4154353,96.0338915 71.2816,95.8852506 C71.1477647,95.7371258 70.9631059,95.5926138 70.7270588,95.4527469 C70.4723765,95.295332 70.1233882,95.128111 69.6806588,94.9500516 C69.2368,94.7725083 68.8657882,94.6021906 68.5664941,94.4390985 C68.1395765,94.2001376 67.8126118,93.9178231 67.5867294,93.5916389 C67.3602824,93.2654548 67.2473412,92.8866269 67.2473412,92.4551554 C67.2473412,92.0242 67.3760941,91.6371143 67.6352941,91.2933823 C67.8950588,90.9496502 68.2417882,90.673013 68.6766118,90.4634706 C69.0538353,90.2771533 69.4705882,90.1532859 69.928,90.0918683 C70.3854118,90.0309669 70.8281412,90 71.2573176,90 C71.6469647,90 71.9665882,90.0056773 72.2161882,90.0165157 C72.4652235,90.0273541 72.6092235,90.0325152 72.6476235,90.0325152 L72.7532235,91.161257 C72.7086118,91.161257 72.5132235,91.1509347 72.1676235,91.1292579 C71.8220235,91.1080973 71.4431059,91.0967427 71.0303059,91.0967427 C70.7383529,91.0967427 70.4605176,91.1210001 70.1973647,91.1684826 C69.9336471,91.2164812 69.7100235,91.2851244 69.5264941,91.3744122 C69.2537412,91.5055052 69.0583529,91.6639523 68.9408941,91.8487212 C68.8234353,92.0340062 68.7647059,92.2130978 68.7647059,92.38548 C68.7647059,92.6192797 68.8471529,92.8200482 69.0120471,92.9888175 C69.1769412,93.158103 69.3706353,93.3005505 69.5925647,93.4171923 C69.8528941,93.5570593 70.2080941,93.722732 70.6587294,93.9147265 C71.1093647,94.1072371 71.4363294,94.2610391 71.6390588,94.3776809 C72.0829176,94.6341897 72.4211765,94.9196009 72.6527059,95.2339144 C72.8842353,95.548228 73,95.9213786 73,96.352334" id="Fill-31" fill="#0060A0"></path>
                    <path d="M84,94.5941094 C84,95.5747546 83.7883077,96.4084151 83.3660171,97.0950912 C82.9437265,97.7817672 82.3737436,98.3237027 81.6582564,98.7220196 C81.0330256,99.0642356 80.3470769,99.3043478 79.6004103,99.4440393 C78.8537436,99.5826087 78.1431795,99.6521739 77.470359,99.6521739 L77.5042735,104 L76,104 C76.0054701,103.892847 76.0131282,103.018233 76.0213333,101.37784 C76.0300855,99.7363254 76.0344615,98.0908836 76.0344615,96.4409537 C76.0344615,95.6123422 76.0311795,94.6502104 76.0257094,93.5534362 C76.0196923,92.456101 76.0114872,91.2751753 76,90.0100982 C76.1969231,90.0033661 76.3922051,90 76.5863932,90 L77.0349402,90 C78.3275214,90 79.3312821,90.0701262 80.0462222,90.2092567 C80.7600684,90.3489481 81.4099145,90.5957924 81.9952137,90.9497896 C82.6171624,91.3234222 83.106735,91.8215989 83.4644786,92.4448808 C83.8211282,93.0681627 84,93.7845722 84,94.5941094 L84,94.5941094 Z M82.530188,94.6367461 C82.530188,94.0173913 82.3896068,93.4732118 82.1084444,93.0053296 C81.8272821,92.5374474 81.4618803,92.1671809 81.0100513,91.8945302 C80.6008889,91.654979 80.1359316,91.4788219 79.6146325,91.3683029 C79.0922393,91.257784 78.5260855,91.202244 77.9161709,91.202244 L77.7148718,91.202244 L77.5042735,91.202244 C77.5042735,91.3093969 77.4982564,91.6841515 77.4873162,92.3265077 C77.4752821,92.9683029 77.470359,94.0774194 77.470359,95.6521739 L77.470359,97.0367461 L77.470359,98.4600281 C78.045265,98.4600281 78.6207179,98.4050491 79.1967179,98.2945302 C79.7721709,98.1834502 80.2464274,98.0336606 80.6200342,97.8434783 C81.2441709,97.5270687 81.7184274,97.1063114 82.0433504,96.5817672 C82.3677265,96.056662 82.530188,95.4086957 82.530188,94.6367461 L82.530188,94.6367461 Z" id="Fill-32" fill="#0060A0"></path>
                    <path d="M86,88.6383837 L88,88.6383837 L88,87 L86,87 L86,88.6383837 Z M87.9149081,100 L86.0850919,100 C86.0918993,99.9001802 86.1014295,99.2800704 86.1116406,98.1413435 C86.1225323,97.0026167 86.1279782,96.0624142 86.1279782,95.3196208 C86.1279782,94.6716283 86.125936,93.9589482 86.1225323,93.182138 C86.1184479,92.4053277 86.1068754,91.4946809 86.0850919,90.4501973 L87.9149081,90.4501973 C87.9026549,91.356383 87.8931246,92.2040151 87.8849558,92.9936513 C87.8761062,93.7832876 87.8720218,94.4864876 87.8720218,95.1026939 C87.8720218,96.5687629 87.8788291,97.7448524 87.8938053,98.6320779 C87.90742,99.5193034 87.9149081,99.9749056 87.9149081,100 L87.9149081,100 Z" id="Fill-33" fill="#0060A0"></path>
                    <path d="M96,91.2214286 C95.6865823,91.2970286 95.2070886,91.4554286 94.5610127,91.6981714 C93.915443,91.9409143 93.1711392,92.2644 92.3291139,92.6681143 L92.3291139,93.5434286 L92.3291139,94.9932 C92.3291139,95.6787429 92.3341772,96.4918286 92.3448101,97.4329714 C92.355443,98.3736 92.3610127,98.8956 92.3610127,99 L91,99 C91,98.9017714 91.0050633,98.5767429 91.0156962,98.0254286 C91.0263291,97.4746286 91.0318987,96.5319429 91.0318987,95.1973714 C91.0318987,94.6578857 91.0288608,93.9034286 91.0237975,92.9345143 C91.0182278,91.9661143 91.0101266,91.0517143 91,90.1928571 L92.3291139,90.1928571 L92.3291139,91.5109714 L92.3377215,91.5192 C92.9802532,91.1494286 93.6146835,90.8285143 94.2405063,90.5559429 C94.8668354,90.2838857 95.3670886,90.0987429 95.7427848,90 L96,91.2214286" id="Fill-34" fill="#0060A0"></path>
                    <path d="M98,88.6383837 L100,88.6383837 L100,87 L98,87 L98,88.6383837 Z M99.9149081,100 L98.0850919,100 C98.0918993,99.9001802 98.1014295,99.2800704 98.1123213,98.1413435 C98.1225323,97.0026167 98.1279782,96.0624142 98.1279782,95.3196208 C98.1279782,94.6716283 98.125936,93.9589482 98.1225323,93.182138 C98.1184479,92.4053277 98.1068754,91.4946809 98.0850919,90.4501973 L99.9149081,90.4501973 C99.9026549,91.356383 99.8931246,92.2040151 99.8849558,92.9936513 C99.8761062,93.7832876 99.8720218,94.4864876 99.8720218,95.1026939 C99.8720218,96.5687629 99.8788291,97.7448524 99.8938053,98.6320779 C99.90742,99.5193034 99.9149081,99.9749056 99.9149081,100 L99.9149081,100 Z" id="Fill-35" fill="#0060A0"></path>
                    <path d="M111,100 L109.471341,100 C109.476461,99.8200661 109.484426,99.2250313 109.493529,98.2148958 C109.502062,97.2047603 109.506614,96.5806856 109.506614,96.3426717 L109.506614,94.8610637 L109.506614,93.4278556 C109.487271,92.6881904 109.345612,92.1569297 109.081638,91.8352124 C108.817096,91.513495 108.360262,91.3523517 107.709999,91.3523517 C107.316882,91.3523517 106.830465,91.4656645 106.250747,91.6928596 C105.671597,91.9194853 105.085621,92.209885 104.493386,92.5623505 L104.493386,93.7148389 L104.493386,95.6229359 C104.493386,96.3717117 104.498507,97.2759367 104.511023,98.3350416 C104.522401,99.393577 104.528659,99.9493224 104.528659,100 L103,100 C103,99.9555859 103.00512,99.5621228 103.017636,98.8201799 C103.029014,98.0782371 103.035272,96.9747181 103.035272,95.5101925 C103.035272,94.8360096 103.033566,94.0456668 103.030721,93.1403029 C103.027308,92.2343697 103.017636,91.2703565 103,90.2488327 L104.493386,90.2488327 L104.493386,91.3523517 L104.502489,91.3717117 C105.39909,90.8603804 106.147774,90.5039289 106.746835,90.3023574 C107.345328,90.1013552 107.843692,90 108.241929,90 C109.062864,90 109.721661,90.2585127 110.218888,90.7755381 C110.715545,91.2931329 110.964728,92.0009111 110.964728,92.9000114 L110.964728,94.9954447 L110.964728,96.4258057 C110.964728,97.010591 110.969848,97.7417151 110.982364,98.6180389 C110.993742,99.4949322 111,99.9555859 111,100" id="Fill-36" fill="#0060A0"></path>
                    <path d="M121,90 C121,90.13944 120.99453,90.76552 120.983043,91.87824 C120.971556,92.99152 120.966085,94.04992 120.966085,95.05512 C120.966085,95.73888 120.971556,96.4344 120.983043,97.1428 C120.99453,97.8512 121,98.49912 121,99.08712 C121,100.16792 120.817846,101.0152 120.454085,101.62896 C120.090325,102.2416 119.572855,102.7316 118.901128,103.09896 C118.372171,103.37672 117.728342,103.59624 116.969641,103.75808 C116.21094,103.9188 115.290325,104 114.207795,104 L114.060103,102.81 C114.783248,102.79656 115.432547,102.75736 116.006906,102.69184 C116.581812,102.6252 117.103658,102.50368 117.574085,102.32784 C118.297231,102.04952 118.801026,101.6816 119.084923,101.2252 C119.369368,100.76712 119.517607,100.21048 119.530188,99.55472 L119.308103,99.55472 L119.086017,99.55472 C118.352479,99.55472 117.596513,99.46456 116.819761,99.28424 C116.043009,99.10392 115.380034,98.81664 114.831385,98.42352 C114.288752,98.04944 113.847863,97.56168 113.508718,96.95968 C113.169573,96.35712 113,95.61232 113,94.72472 C113,93.83768 113.238496,93.0548 113.715487,92.37664 C114.192479,91.69848 114.830291,91.15976 115.62947,90.76048 C116.199453,90.47544 116.820855,90.2772 117.492581,90.16632 C118.164855,90.056 118.977709,90 119.931692,90 L120.447521,90 L121,90 L121,90 Z M119.564103,95.054 C119.564103,94.59648 119.562462,94.0236 119.558632,93.33704 C119.554803,92.64992 119.544957,91.93424 119.530188,91.19 L119.409299,91.19 L119.28841,91.19 C118.712957,91.19 118.210256,91.22808 117.780308,91.3048 C117.349812,91.38152 116.896342,91.52432 116.419897,91.73376 C115.78865,92.01376 115.305641,92.42424 114.971419,92.96464 C114.637197,93.5056 114.470359,94.116 114.470359,94.7964 C114.470359,95.4964 114.635556,96.09448 114.965949,96.59008 C115.296342,97.0868 115.739419,97.47152 116.296274,97.7448 C116.672615,97.9296 117.109675,98.07912 117.606906,98.19336 C118.104137,98.30816 118.630906,98.36472 119.187214,98.36472 L119.37265,98.36472 L119.530188,98.36472 C119.530188,98.28912 119.535658,97.93464 119.547145,97.30128 C119.558632,96.66848 119.564103,95.9192 119.564103,95.054 L119.564103,95.054 Z" id="Fill-37" fill="#0060A0"></path>
                    <path d="M141,93.4951124 C141,94.4878436 140.828297,95.3991144 140.48544,96.2289247 C140.142583,97.0587351 139.697143,97.7435458 139.148023,98.2822709 C138.536914,98.8823628 137.888503,99.3184477 137.203337,99.5910686 C136.518171,99.8636895 135.783634,100 134.999726,100 C134.234469,100 133.512,99.8696633 132.832869,99.609533 C132.153737,99.3499457 131.543177,98.962194 130.999543,98.447364 C130.401051,97.8901746 129.918309,97.1874426 129.550766,96.3391679 C129.183223,95.4908931 129,94.5367199 129,93.4771911 C129,92.5344223 129.144823,91.6752862 129.435017,90.9003258 C129.725211,90.1253655 130.160229,89.4286072 130.740617,88.810594 C131.27712,88.2343972 131.916206,87.7890801 132.657326,87.4735567 C133.397349,87.1580333 134.178514,87 134.999726,87 C135.833006,87 136.604297,87.1488011 137.314697,87.4458601 C138.024549,87.7429192 138.6384,88.154566 139.157349,88.6813435 C139.761874,89.293926 140.22048,90.0151224 140.532069,90.8449327 C140.844206,91.6752862 141,92.5588604 141,93.4951124 L141,93.4951124 Z M139.422857,93.6422842 C139.422857,92.8483165 139.288457,92.0679255 139.019657,91.3016543 C138.750309,90.5353831 138.340526,89.8929317 137.790857,89.3737572 C137.420023,89.0191328 137.004206,88.7443395 136.543406,88.5493776 C136.082606,88.3544156 135.568594,88.25612 134.999726,88.25612 C134.443474,88.25612 133.925074,88.3560448 133.446171,88.5542652 C132.967269,88.7524856 132.5328,89.044114 132.143863,89.4286072 C131.649051,89.9173699 131.264503,90.5218063 130.989669,91.2424597 C130.714286,91.963113 130.577143,92.7141783 130.577143,93.4951124 C130.577143,94.3743421 130.717577,95.1628791 130.998446,95.8585513 C131.279863,96.5547665 131.677577,97.143997 132.190491,97.6267859 C132.542674,97.9629459 132.960137,98.2328515 133.442331,98.4375888 C133.923977,98.642326 134.440183,98.74388 134.990949,98.74388 C135.540617,98.74388 136.055177,98.6450414 136.53408,98.446821 C137.012983,98.2480575 137.447451,97.9624029 137.836937,97.5898571 C138.30048,97.1505138 138.68064,96.5906091 138.977417,95.9095998 C139.274194,95.2285905 139.422857,94.4726376 139.422857,93.6422842 L139.422857,93.6422842 Z" id="Fill-38" fill="#0060A0"></path>
                    <path d="M151,99.7506121 L149.506614,99.7506121 L149.506614,98.6477253 L149.497511,98.6380459 C149.048073,98.9307066 148.487697,99.2301999 147.817522,99.5382338 C147.146779,99.8456983 146.487413,100 145.839425,100 C144.961599,100 144.274925,99.736947 143.779405,99.2102716 C143.283317,98.6835962 143.035272,97.9451119 143.035272,96.9942493 L143.035272,95.1591414 L143.035272,93.6127085 C143.035272,93.0285259 143.029583,92.3076923 143.017636,91.4502078 C143.005689,90.5927233 143,90.1098901 143,90 L144.528659,90 C144.528659,90.0836987 144.52297,90.5460343 144.511023,91.3852986 C144.499076,92.2257018 144.493386,92.8952912 144.493386,93.3957752 L144.493386,95.05039 L144.493386,96.4544782 C144.505902,97.2111826 144.638458,97.7663269 144.889347,98.1187724 C145.140236,98.4712179 145.545868,98.6477253 146.106813,98.6477253 C146.679704,98.6477253 147.308918,98.501395 147.995022,98.2081649 C148.680558,97.9143654 149.184611,97.658145 149.506614,97.4377954 L149.506614,96.3662244 L149.506614,93.9856517 C149.506614,93.3069521 149.500924,92.4938792 149.488977,91.5470022 C149.47703,90.6001253 149.471341,90.0848374 149.471341,90 L151,90 C151,90.1098901 150.994311,90.4714457 150.982364,91.0846666 C150.970417,91.6978876 150.964728,92.7432671 150.964728,94.2208051 C150.964728,95.0492513 150.967572,95.7769174 150.973261,96.4032341 C150.97895,97.0289814 150.988053,98.1449638 151,99.7506121" id="Fill-39" fill="#0060A0"></path>
                    <path d="M159,91.2214286 C158.686582,91.2970286 158.207089,91.4554286 157.561013,91.6981714 C156.915443,91.9409143 156.171139,92.2644 155.329114,92.6681143 L155.329114,93.5434286 L155.329114,94.9932 C155.329114,95.6787429 155.334177,96.4918286 155.34481,97.4329714 C155.355443,98.3736 155.361013,98.8956 155.361013,99 L154,99 C154,98.9017714 154.005063,98.5767429 154.015696,98.0254286 C154.026329,97.4746286 154.031899,96.5319429 154.031899,95.1973714 C154.031899,94.6578857 154.028861,93.9034286 154.023797,92.9345143 C154.018228,91.9661143 154.010633,91.0517143 154,90.1928571 L155.329114,90.1928571 L155.329114,91.5109714 L155.337722,91.5192 C155.980253,91.1494286 156.614684,90.8285143 157.240506,90.5559429 C157.866835,90.2838857 158.367089,90.0987429 158.742785,90 L159,91.2214286" id="Fill-40" fill="#0060A0"></path>
                    <path d="M175,89.2596685 C174.889297,89.2596685 174.463784,89.254895 173.724036,89.2432265 C172.984288,89.2326188 172.075027,89.2267845 170.997405,89.2267845 L169.658595,89.2267845 L168.621333,89.2267845 C168.621333,89.9072707 168.614991,90.6455691 168.603459,91.4406188 C168.590775,92.2356685 168.585586,92.9341878 168.585586,93.5361768 L169.255568,93.5361768 L170.315315,93.5361768 C171.376793,93.5361768 172.380036,93.5308729 173.322162,93.5197348 C174.264865,93.5085967 174.78782,93.5027624 174.891604,93.5027624 L174.891604,94.7624309 C174.768216,94.7624309 174.170883,94.7576575 173.099027,94.745989 C172.026595,94.7353812 171.066018,94.729547 170.217874,94.729547 L169.265369,94.729547 L168.585586,94.729547 C168.585586,95.7871381 168.589622,96.7869171 168.598847,97.7278232 C168.608072,98.6697901 168.614991,99.4266519 168.621333,100 L167,100 C167.009225,99.6414586 167.017874,99.0023425 167.024793,98.0826519 C167.031712,97.1640221 167.035748,95.841768 167.035748,94.1169503 C167.035748,93.4401768 167.032865,92.5485967 167.028252,91.4406188 C167.02364,90.3331713 167.013838,89.1864751 167,88 C167.474523,88 168.055135,88.0058343 168.741261,88.0169724 C169.427387,88.0281105 170.150414,88.0334144 170.912072,88.0334144 C172.049658,88.0334144 172.989477,88.0281105 173.730955,88.0169724 C174.472432,88.0058343 174.89564,88 175,88 L175,89.2596685" id="Fill-41" fill="#0060A0"></path>
                    <path d="M185,99.7506121 L183.506614,99.7506121 L183.506614,98.6477253 L183.496942,98.6380459 C183.047504,98.9307066 182.487697,99.2301999 181.816953,99.5382338 C181.14621,99.8456983 180.486844,100 179.838856,100 C178.96103,100 178.274356,99.736947 177.779405,99.2102716 C177.283317,98.6835962 177.035272,97.9451119 177.035272,96.9942493 L177.035272,95.1591414 L177.035272,93.6127085 C177.035272,93.0285259 177.029014,92.3076923 177.017636,91.4502078 C177.00512,90.5927233 177,90.1098901 177,90 L178.528659,90 C178.528659,90.0836987 178.522401,90.5460343 178.510454,91.3852986 C178.498507,92.2257018 178.492818,92.8952912 178.492818,93.3957752 L178.492818,95.05039 L178.492818,96.4544782 C178.505902,97.2111826 178.637889,97.7663269 178.889347,98.1187724 C179.140236,98.4712179 179.545868,98.6477253 180.106244,98.6477253 C180.679135,98.6477253 181.308349,98.501395 181.994453,98.2081649 C182.679989,97.9143654 183.184042,97.658145 183.506614,97.4377954 L183.506614,96.3662244 L183.506614,93.9856517 C183.506614,93.3069521 183.500356,92.4938792 183.488408,91.5470022 C183.476461,90.6001253 183.470772,90.0848374 183.470772,90 L185,90 C185,90.1098901 184.993742,90.4714457 184.981795,91.0846666 C184.969848,91.6978876 184.964159,92.7432671 184.964159,94.2208051 C184.964159,95.0492513 184.967003,95.7769174 184.973261,96.4032341 C184.97895,97.0289814 184.987484,98.1449638 185,99.7506121" id="Fill-42" fill="#0060A0"></path>
                    <path d="M193,98.7649882 L192.84087,99.9649882 C192.799652,99.9728941 192.698435,99.9802353 192.537217,99.9887059 C192.376,99.9960471 192.236696,100 192.119304,100 C190.916696,100 190.007304,99.7278118 189.39113,99.1828706 C188.774957,98.6379294 188.46713,97.8021647 188.46713,96.6744471 C188.46713,95.9674353 188.472348,95.2090353 188.483826,94.3992471 C188.494261,93.5900235 188.5,92.5865412 188.5,91.3882353 L187,91.3882353 L187,90.2588235 L188.565217,90.2588235 L188.565217,88 L189.869565,88 L189.869565,90.2588235 L193,90.2588235 L193,91.3882353 L189.869565,91.3882353 C189.869565,91.5226353 189.863826,91.9207529 189.853391,92.5831529 C189.841913,93.2461176 189.836696,93.7362824 189.836696,94.0542118 L189.836696,95.0384941 L189.836696,96.4237176 C189.836696,97.2521412 190.041217,97.8496 190.450261,98.2155294 C190.858783,98.5820235 191.489565,98.7649882 192.342609,98.7649882 L192.719826,98.7649882 L193,98.7649882" id="Fill-43" fill="#0060A0"></path>
                    <path d="M203,99.7506121 L201.506614,99.7506121 L201.506614,98.6477253 L201.497511,98.6380459 C201.048073,98.9307066 200.487697,99.2301999 199.817522,99.5382338 C199.146779,99.8456983 198.487413,100 197.839425,100 C196.961599,100 196.274925,99.736947 195.779405,99.2102716 C195.283317,98.6835962 195.035272,97.9451119 195.035272,96.9942493 L195.035272,95.1591414 L195.035272,93.6127085 C195.035272,93.0285259 195.029583,92.3076923 195.017636,91.4502078 C195.005689,90.5927233 195,90.1098901 195,90 L196.528659,90 C196.528659,90.0836987 196.52297,90.5460343 196.511023,91.3852986 C196.499076,92.2257018 196.493386,92.8952912 196.493386,93.3957752 L196.493386,95.05039 L196.493386,96.4544782 C196.505902,97.2111826 196.638458,97.7663269 196.889347,98.1187724 C197.140236,98.4712179 197.545868,98.6477253 198.106813,98.6477253 C198.679704,98.6477253 199.308918,98.501395 199.995022,98.2081649 C200.680558,97.9143654 201.184611,97.658145 201.506614,97.4377954 L201.506614,96.3662244 L201.506614,93.9856517 C201.506614,93.3069521 201.500924,92.4938792 201.488977,91.5470022 C201.47703,90.6001253 201.471341,90.0848374 201.471341,90 L203,90 C203,90.1098901 202.994311,90.4714457 202.982364,91.0846666 C202.970417,91.6978876 202.964728,92.7432671 202.964728,94.2208051 C202.964728,95.0492513 202.967572,95.7769174 202.973261,96.4032341 C202.97895,97.0289814 202.988053,98.1449638 203,99.7506121" id="Fill-44" fill="#0060A0"></path>
                    <path d="M211,91.2214286 C210.686076,91.2970286 210.206582,91.4554286 209.561013,91.6981714 C208.914937,91.9409143 208.171139,92.2644 207.329114,92.6681143 L207.329114,93.5434286 L207.329114,94.9932 C207.329114,95.6787429 207.333671,96.4918286 207.34481,97.4329714 C207.354937,98.3736 207.360506,98.8956 207.360506,99 L206,99 C206,98.9017714 206.004557,98.5767429 206.015696,98.0254286 C206.025823,97.4746286 206.031392,96.5319429 206.031392,95.1973714 C206.031392,94.6578857 206.028354,93.9034286 206.023291,92.9345143 C206.018228,91.9661143 206.010127,91.0517143 206,90.1928571 L207.329114,90.1928571 L207.329114,91.5109714 L207.337215,91.5192 C207.980253,91.1494286 208.614684,90.8285143 209.240506,90.5559429 C209.866329,90.2838857 210.367089,90.0987429 210.742785,90 L211,91.2214286" id="Fill-45" fill="#0060A0"></path>
                    <path d="M220,94.751773 L213.409128,94.751773 C213.415069,95.4280851 213.551715,96.0487943 213.819066,96.6133333 C214.085876,97.1778723 214.496354,97.6453901 215.048879,98.0153191 C215.401026,98.2513475 215.802322,98.4283688 216.251688,98.546383 C216.701053,98.6643972 217.241696,98.7234043 217.873616,98.7234043 C218.219282,98.7234043 218.536862,98.7131915 218.825277,98.692766 C219.113692,98.6729078 219.291925,98.6592908 219.358898,98.6524823 L219.194167,99.929078 C219.145558,99.9370213 218.984067,99.9506383 218.710235,99.9704965 C218.435863,99.9897872 218.113962,100 217.742371,100 C216.768566,100 215.920605,99.867234 215.199568,99.6017021 C214.477991,99.3361702 213.886578,98.9696454 213.423711,98.502695 C213.028355,98.1129078 212.691871,97.613617 212.414799,97.0059574 C212.137726,96.3982979 212,95.7231206 212,94.9804255 C212,94.2513475 212.10316,93.5926241 212.310019,93.0042553 C212.516878,92.4158865 212.827437,91.8683688 213.241696,91.3628369 C213.600324,90.928227 214.046989,90.5923404 214.57953,90.3551773 C215.112071,90.1185816 215.665136,90 216.237105,90 C216.803133,90 217.305428,90.0896454 217.743991,90.2689362 C218.182555,90.448227 218.563327,90.72 218.886308,91.0848227 C219.244937,91.4950355 219.518769,91.9982979 219.707804,92.5968794 C219.89684,93.195461 219.993519,93.9131915 220,94.751773 L220,94.751773 Z M218.582231,93.6879433 C218.485012,92.8919149 218.228463,92.267234 217.812584,91.8139007 C217.396705,91.3611348 216.848501,91.1347518 216.168512,91.1347518 C215.488523,91.1347518 214.921415,91.364539 214.466109,91.8241135 C214.010262,92.2831206 213.694842,92.9043972 213.518769,93.6879433 L218.582231,93.6879433 L218.582231,93.6879433 Z" id="Fill-46" fill="#0060A0"></path>
                </g>
            </g>
        </g>
    </g>
</svg>